<svg width="18" height="18" viewBox="0 0 18 18" fill="none" xmlns="http://www.w3.org/2000/svg">
<path d="M17.855 7.33397C17.935 7.33397 17.9999 7.39884 17.9999 7.47885V8.99995C17.9999 9.56926 17.947 10.1259 17.8456 10.6659C17.061 14.8604 13.3658 18.0302 8.93648 17.9996C3.9665 17.9654 -0.0109811 13.9497 2.27767e-05 8.97966C0.0109563 4.01855 4.03625 0 8.99994 0C11.4318 0 13.6382 0.964752 15.2582 2.53187C15.3167 2.58843 15.3182 2.68167 15.2607 2.73918L13.1087 4.89112C13.0533 4.94653 12.9638 4.94797 12.907 4.89393C11.8903 3.92612 10.5146 3.33195 8.99994 3.33195C5.87207 3.33195 3.35331 5.83281 3.33208 8.96061C3.31074 12.1089 5.8566 14.6679 8.99994 14.6679C11.5503 14.6679 13.7074 12.9831 14.4187 10.6659H9.14481C9.0648 10.6659 8.99994 10.6011 8.99994 10.521V7.47882C8.99994 7.3988 9.0648 7.33394 9.14481 7.33394H17.855V7.33397Z" fill="#2196F3"/>
</svg>
